<svg width="256" height="256" viewBox="0 0 256 256" fill="none" xmlns="http://www.w3.org/2000/svg">
<path d="M126.707 6.34452C125.159 27.717 111.22 53.4259 67.8557 114.446C48.0319 142.633 41.2175 161.527 43.3857 184.449C44.0052 194.36 47.7222 207.68 51.1294 214.494C57.0146 226.264 85.821 256 91.3964 256C92.9451 256 90.7769 246.708 87.06 234.937C73.4311 195.909 76.8383 178.873 106.574 135.818C130.734 100.817 139.407 78.8251 140.956 50.0187C141.575 33.9119 140.646 20.9026 137.549 13.1589C132.593 -1.39914 127.637 -4.18686 126.707 6.34452Z" fill="#FF0000"/>
<path d="M152.417 134.889L143.434 136.748L151.797 142.323C183.547 160.294 178.048 200.556 148.932 212.016C140.414 214.227 137.316 215.346 123.378 212.016C115.015 208.609 107.813 201.795 103.167 194.98L95.733 184.139L93.5647 193.431C90.4673 208.609 96.9719 226.264 110.291 238.345C145.292 269.939 202.286 248.256 211.268 199.936C217.773 164.935 185.25 128.694 152.417 134.889Z" fill="#FF0000"/>
</svg>
